<svg width="26" height="18" viewBox="0 0 26 18" fill="none" xmlns="http://www.w3.org/2000/svg">
<path d="M4.67419 17.4116H15.3678C17.8647 17.4116 19.3587 15.9585 19.3587 13.4616V12.0597L23.2268 15.3343C23.6362 15.672 24.0864 15.9074 24.506 15.9074C25.4065 15.9074 26 15.2422 26 14.2905V3.70948C26 2.7578 25.4065 2.09265 24.506 2.09265C24.0864 2.09265 23.6362 2.32801 23.2268 2.6657L19.3587 5.9403V4.52813C19.3587 2.04148 17.8647 0.588379 15.3678 0.588379H4.67419C2.28987 0.588379 0.683273 2.04148 0.683273 4.52813V13.4616C0.683273 15.9585 2.17731 17.4116 4.67419 17.4116ZM4.96072 15.8664C3.28248 15.8664 2.33081 14.9966 2.33081 13.2263V4.77372C2.33081 2.99316 3.28248 2.12335 4.96072 2.12335H15.0813C16.7493 2.12335 17.7112 2.99316 17.7112 4.77372V13.2263C17.7112 14.9966 16.7493 15.8664 15.0813 15.8664H4.96072ZM23.9943 13.9426L19.3587 10.1154V7.88459L23.9943 4.05741C24.0864 3.98577 24.1478 3.93461 24.2399 3.93461C24.3627 3.93461 24.4139 4.03694 24.4139 4.1802V13.8198C24.4139 13.9631 24.3627 14.0552 24.2399 14.0552C24.1478 14.0552 24.0864 14.004 23.9943 13.9426Z" fill="#007AFF"/>
</svg>
